<?xml version="1.0" encoding="UTF-8" standalone="no"?>
<!-- Generator: Adobe Illustrator 16.0.0, SVG Export Plug-In . SVG Version: 6.00 Build 0)  -->

<svg
   xmlns:osb="http://www.openswatchbook.org/uri/2009/osb"
   xmlns:dc="http://purl.org/dc/elements/1.1/"
   xmlns:cc="http://creativecommons.org/ns#"
   xmlns:rdf="http://www.w3.org/1999/02/22-rdf-syntax-ns#"
   xmlns:svg="http://www.w3.org/2000/svg"
   xmlns="http://www.w3.org/2000/svg"
   xmlns:sodipodi="http://sodipodi.sourceforge.net/DTD/sodipodi-0.dtd"
   xmlns:inkscape="http://www.inkscape.org/namespaces/inkscape"
   version="1.1"
   id="Capa_1"
   x="0px"
   y="0px"
   width="612px"
   height="612px"
   viewBox="0 0 612 612"
   style="enable-background:new 0 0 612 612;"
   xml:space="preserve"
   sodipodi:docname="email-filled-closed-envelope.svg"
   inkscape:version="0.92.4 (5da689c313, 2019-01-14)"><metadata
   id="metadata4708"><rdf:RDF><cc:Work
       rdf:about=""><dc:format>image/svg+xml</dc:format><dc:type
         rdf:resource="http://purl.org/dc/dcmitype/StillImage" /></cc:Work></rdf:RDF></metadata><defs
   id="defs4706"><linearGradient
     id="linearGradient5260"
     osb:paint="solid"><stop
       style="stop-color:#552233;stop-opacity:1;"
       offset="0"
       id="stop5258" /></linearGradient></defs><sodipodi:namedview
   pagecolor="#ffffff"
   bordercolor="#666666"
   borderopacity="1"
   objecttolerance="10"
   gridtolerance="10"
   guidetolerance="10"
   inkscape:pageopacity="0"
   inkscape:pageshadow="2"
   inkscape:window-width="1920"
   inkscape:window-height="1017"
   id="namedview4704"
   showgrid="false"
   inkscape:zoom="0.38562092"
   inkscape:cx="55.754237"
   inkscape:cy="306"
   inkscape:window-x="-8"
   inkscape:window-y="-8"
   inkscape:window-maximized="1"
   inkscape:current-layer="Capa_1" />
<g
   id="g4671">
	<path
   d="m 306.768,346.814 h 0.131 c 4.615,0 9.176,-1.339 12.866,-3.777 l 1.001,-0.643 c 0.218,-0.142 0.446,-0.271 0.675,-0.424 l 11.658,-9.645 278.259,-229.624 c -0.576,-0.795 -1.557,-1.339 -2.602,-1.339 H 3.233 c -0.751,0 -1.448,0.272 -2.003,0.729 l 291.125,239.954 c 3.669,3.038 8.904,4.769 14.413,4.769 z M 0,133.899 v 340.37 L 208.55,305.798 Z M 403.668,306.941 612,474.356 V 135.031 Z m -66.237,54.644 c -8.305,6.814 -19.168,10.57 -30.576,10.57 -11.451,0 -22.304,-3.734 -30.587,-10.516 L 228.503,322.245 0,506.806 v 0.587 c 0,1.753 1.502,3.244 3.276,3.244 h 605.491 c 1.741,0 3.232,-1.491 3.232,-3.255 v -0.544 L 383.693,323.4 Z"
   id="path4669"
   style="fill:url(#linearGradient5260)"
   inkscape:connector-curvature="0" />
</g>
<g
   id="g4673">
</g>
<g
   id="g4675">
</g>
<g
   id="g4677">
</g>
<g
   id="g4679">
</g>
<g
   id="g4681">
</g>
<g
   id="g4683">
</g>
<g
   id="g4685">
</g>
<g
   id="g4687">
</g>
<g
   id="g4689">
</g>
<g
   id="g4691">
</g>
<g
   id="g4693">
</g>
<g
   id="g4695">
</g>
<g
   id="g4697">
</g>
<g
   id="g4699">
</g>
<g
   id="g4701">
</g>
</svg>