<?xml version="1.0" encoding="UTF-8" standalone="no"?>
<!-- Generator: Adobe Illustrator 19.1.0, SVG Export Plug-In . SVG Version: 6.00 Build 0)  -->

<svg
   xmlns:osb="http://www.openswatchbook.org/uri/2009/osb"
   xmlns:dc="http://purl.org/dc/elements/1.1/"
   xmlns:cc="http://creativecommons.org/ns#"
   xmlns:rdf="http://www.w3.org/1999/02/22-rdf-syntax-ns#"
   xmlns:svg="http://www.w3.org/2000/svg"
   xmlns="http://www.w3.org/2000/svg"
   xmlns:sodipodi="http://sodipodi.sourceforge.net/DTD/sodipodi-0.dtd"
   xmlns:inkscape="http://www.inkscape.org/namespaces/inkscape"
   version="1.1"
   id="Capa_1"
   x="0px"
   y="0px"
   viewBox="0 0 484.6 484.6"
   style="enable-background:new 0 0 484.6 484.6;"
   xml:space="preserve"
   sodipodi:docname="phonebook.svg"
   inkscape:version="0.92.4 (5da689c313, 2019-01-14)"><metadata
   id="metadata5997"><rdf:RDF><cc:Work
       rdf:about=""><dc:format>image/svg+xml</dc:format><dc:type
         rdf:resource="http://purl.org/dc/dcmitype/StillImage" /></cc:Work></rdf:RDF></metadata><defs
   id="defs5995"><linearGradient
     id="linearGradient6546"
     osb:paint="solid"><stop
       style="stop-color:#552233;stop-opacity:1;"
       offset="0"
       id="stop6544" /></linearGradient></defs><sodipodi:namedview
   pagecolor="#ffffff"
   bordercolor="#666666"
   borderopacity="1"
   objecttolerance="10"
   gridtolerance="10"
   guidetolerance="10"
   inkscape:pageopacity="0"
   inkscape:pageshadow="2"
   inkscape:window-width="1920"
   inkscape:window-height="1017"
   id="namedview5993"
   showgrid="false"
   inkscape:zoom="0.48699958"
   inkscape:cx="242.3"
   inkscape:cy="242.3"
   inkscape:window-x="-8"
   inkscape:window-y="-8"
   inkscape:window-maximized="1"
   inkscape:current-layer="Capa_1" />
<g
   id="g5960">
	<g
   id="g5958">
		<path
   d="m 407.1,442 c 0,7.8 -6.4,14.2 -14.2,14.2 H 64.3 c -7.8,0 -14.2,-6.4 -14.2,-14.2 v -5.8 H 356 c 15.6,0 28.3,-12.7 28.3,-28.3 V 28.3 C 384.3,12.6 371.6,0 356,0 H 50.1 C 34.5,0 21.8,12.7 21.8,28.3 v 379.6 c 0,0.1 0,0.1 0,0.2 v 34 c 0,23.4 19.1,42.5 42.5,42.5 h 328.6 c 23.4,0 42.5,-19.1 42.5,-42.5 V 383.2 H 407.1 V 442 Z m -305,-292.6 c 0.6,-7.7 3.5,-14.3 9.2,-19.7 6.1,-5.8 11.9,-11.9 17.9,-17.9 7.9,-7.7 17.7,-7.7 25.6,0 4.9,4.8 9.7,9.6 14.5,14.5 4.7,4.7 9.4,9.4 14.1,14.1 8.2,8.3 8.2,18 0,26.2 -5.9,5.9 -11.7,11.9 -17.7,17.6 -1.6,1.5 -1.7,2.8 -0.9,4.7 3.9,9.5 9.6,17.8 16,25.7 12.9,15.8 27.4,29.9 44.8,40.8 3.7,2.3 7.8,4 11.7,6.1 2,1.1 3.4,0.7 5,-0.9 5.9,-6.1 11.9,-12 17.9,-17.9 7.8,-7.8 17.7,-7.8 25.6,0 9.6,9.5 19.2,19.1 28.8,28.8 8,8.1 7.9,17.9 -0.1,26.1 -5.4,5.5 -11.2,10.7 -16.3,16.5 -7.5,8.4 -16.9,11.1 -27.6,10.5 -15.6,-0.9 -30,-6 -43.9,-12.8 -30.9,-15 -57.2,-35.8 -79.3,-62 -16.3,-19.4 -29.8,-40.6 -38.7,-64.4 -4.5,-11.7 -7.5,-23.5 -6.6,-36 z"
   id="path5950"
   style="fill:url(#linearGradient6546)"
   inkscape:connector-curvature="0" />
		<path
   d="M 445.8,160.1 H 408 v 83.1 h 37.8 c 9.4,0 17,-7.6 17,-17 v -49.1 c 0,-9.4 -7.6,-17 -17,-17 z"
   id="path5952"
   style="fill:url(#linearGradient6546)"
   inkscape:connector-curvature="0" />
		<path
   d="M 445.8,270.6 H 408 v 83.1 h 37.8 c 9.4,0 17,-7.6 17,-17 v -49.1 c 0,-9.4 -7.6,-17 -17,-17 z"
   id="path5954"
   style="fill:url(#linearGradient6546)"
   inkscape:connector-curvature="0" />
		<path
   d="M 445.8,49.6 H 408 v 83.1 h 37.8 c 9.4,0 17,-7.6 17,-17 V 66.6 c 0,-9.4 -7.6,-17 -17,-17 z"
   id="path5956"
   style="fill:url(#linearGradient6546)"
   inkscape:connector-curvature="0" />
	</g>
</g>
<g
   id="g5962">
</g>
<g
   id="g5964">
</g>
<g
   id="g5966">
</g>
<g
   id="g5968">
</g>
<g
   id="g5970">
</g>
<g
   id="g5972">
</g>
<g
   id="g5974">
</g>
<g
   id="g5976">
</g>
<g
   id="g5978">
</g>
<g
   id="g5980">
</g>
<g
   id="g5982">
</g>
<g
   id="g5984">
</g>
<g
   id="g5986">
</g>
<g
   id="g5988">
</g>
<g
   id="g5990">
</g>
</svg>